<?xml version="1.0" encoding="UTF-8"?>
<svg width="1024px" height="1024px" viewBox="0 0 1024 1024" version="1.1" xmlns="http://www.w3.org/2000/svg" xmlns:xlink="http://www.w3.org/1999/xlink">
    <title>Icon Artboard</title>
    <defs>
        <linearGradient x1="50%" y1="0%" x2="50%" y2="97.0714415%" id="linearGradient-1">
            <stop stop-color="#FFD320" offset="0%"></stop>
            <stop stop-color="#F8AB14" offset="100%"></stop>
        </linearGradient>
    </defs>
    <g id="Icon-Artboard" stroke="none" stroke-width="1" fill="none" fill-rule="evenodd">
        <g id="check-out" transform="translate(461.000000, 454.000000)" fill="#000000" fill-rule="nonzero">
            <path d="M10.9,23.2 L6.5,23.2 C5.1,23.2 3.9,22 3.9,20.6 L3.9,6.4 C3.9,5 5.1,3.8 6.5,3.8 L10.9,3.8 C12,3.8 12.8,2.9 12.8,1.9 C12.8,0.9 11.9,-1.77635684e-15 10.9,-1.77635684e-15 L6.5,-1.77635684e-15 C2.9,-1.77635684e-15 8.8817842e-16,2.9 8.8817842e-16,6.5 L8.8817842e-16,20.7 C8.8817842e-16,24.3 2.9,27.2 6.5,27.2 L10.9,27.2 C12,27.2 12.8,26.3 12.8,25.3 C12.8,24.3 12,23.2 10.9,23.2 Z" id="Path"></path>
            <path d="M26,12.1 L19.1,5.2 C18.6,4.7 17.9,4.5 17.2,4.7 C16.5,4.9 16,5.4 15.8,6.1 C15.6,6.8 15.8,7.5 16.3,8 L19.8,11.5 L11.5,11.5 C10.5,11.5 9.6,12.4 9.6,13.4 C9.6,14.4 10.4,15.3 11.5,15.3 L20.1,15.3 L16.3,19.1 C15.8,19.6 15.6,20.3 15.8,21 C16,21.7 16.5,22.2 17.2,22.4 C17.4,22.4 17.5,22.5 17.7,22.5 C18.2,22.5 18.7,22.3 19.1,21.9 L26,15 C26.8,14.1 26.8,12.9 26,12.1 Z" id="Path"></path>
        </g>
        <g id="BG" fill="url(#linearGradient-1)">
            <rect x="0" y="0" width="1024" height="1024"></rect>
        </g>
        <g id="Door-with-check" transform="translate(321.000000, 232.000000)" fill="#000000">
            <path d="M338.136745,563.539941 L29.5968047,563.306391 C13.3515394,563.306391 0.193609491,550.148461 0.193609491,533.903195 L0,29.4031953 C0,13.1579299 13.1579299,0 29.4031953,0 L338.035607,0 C354.280872,0 367.438802,13.1579299 367.438802,29.4031953 C367.438802,45.6484606 354.280872,58.8063905 338.035607,58.8063905 L58.8063905,58.8063905 L59,504.5 L308.73355,504.73355 L308.73355,422.017409 C308.73355,405.772143 321.89148,392.614214 338.136745,392.614214 C354.382011,392.614214 367.539941,405.772143 367.539941,422.017409 L367.73355,533.903195 C367.73355,550.148461 354.57562,563.306391 338.330355,563.306391 C327.500178,563.306391 327.435642,563.384241 338.136745,563.539941 Z" id="Fill-1"></path>
            <path d="M338.136745,563.539941 L29.5968047,563.306391 C13.3515394,563.306391 0.193609491,550.148461 0.193609491,533.903195 L0,29.4031953 C0,13.1579299 13.1579299,0 29.4031953,0 L338.035607,0 C354.280872,0 367.438802,13.1579299 367.438802,29.4031953 C367.438802,45.6484606 354.280872,58.8063905 338.035607,58.8063905 L58.8063905,58.8063905 L59,504.5 L308.73355,504.73355 L308.73355,436.017409 C308.73355,419.772143 321.89148,406.614214 338.136745,406.614214 C354.382011,406.614214 367.539941,419.772143 367.539941,436.017409 L367.73355,533.903195 C367.73355,550.148461 354.57562,563.306391 338.330355,563.306391 C327.500178,563.306391 327.435642,563.384241 338.136745,563.539941 Z" id="Fill-1" transform="translate(183.866775, 281.769970) scale(1, -1) translate(-183.866775, -281.769970) "></path>
            <path d="M234.475938,367.326142 L161.4237,294.288605 C149.73593,283.01248 149.412495,264.400257 160.703321,252.712487 C171.979447,241.039419 190.591669,240.701282 202.27944,251.992109 C202.529367,252.227335 202.764592,252.46256 202.999818,252.712487 L255.263997,304.961965 L400.442274,159.783689 C411.718399,148.095919 430.330622,147.772483 442.018392,159.06331 C453.706162,170.339436 454.029597,188.951658 442.73877,200.639428 C442.503545,200.874654 442.268319,201.124581 442.018392,201.359807 L276.052056,367.340844 C270.538957,372.853943 263.055844,375.941382 255.263997,375.941382 C247.457449,375.95598 239.974336,372.853943 234.475938,367.326142 Z" id="Fill-3"></path>
        </g>
    </g>
</svg>